<svg width="187" height="150" viewBox="0 0 187 150" fill="none" xmlns="http://www.w3.org/2000/svg">
<g clip-path="url(#clip0_55_6812)">
<path d="M124.358 150L124.318 149.996L62.6423 144.277L6.55798 149.478C5.09364 149.614 3.63525 149.163 2.50362 148.225C1.372 147.288 0.659838 145.94 0.523814 144.478C0.507982 144.308 0.50006 144.137 0.500046 143.966V10.8081C0.494385 9.42697 1.0084 8.0941 1.94033 7.07335C2.87225 6.0526 4.15414 5.41838 5.53219 5.29628L62.6423 0L62.6818 0.00374047L124.358 5.72334L180.442 0.522287C181.906 0.386486 183.365 0.836962 184.496 1.77461C185.628 2.71227 186.34 4.06029 186.476 5.52213C186.492 5.69232 186.5 5.86297 186.5 6.03408V139.192C186.506 140.573 185.992 141.906 185.06 142.927C184.128 143.947 182.846 144.582 181.468 144.704L124.358 150Z" fill="#3F3D56"/>
<path d="M86.4749 49.2618C74.536 40.5815 61.9743 32.3505 49.1419 24.7987L48.4978 24.4197V50.0325H87.5349L86.4749 49.2618ZM49.3508 49.1809V25.9122C61.5585 33.1213 73.5123 40.9435 84.9117 49.1809L49.3508 49.1809ZM146.897 101.899C141.733 96.54 136.436 91.3032 131.006 86.1884C129.509 84.7769 128.002 83.3767 126.487 81.9878C117.237 73.5055 107.683 65.4385 97.8252 57.7866L97.71 57.6972H48.4978V102.621H147.592L146.897 101.899ZM49.3508 101.769V58.5488H97.4178C106.923 65.9303 116.172 73.7248 125.162 81.9324C126.723 83.3568 128.274 84.7925 129.814 86.2396C135.197 91.2897 140.454 96.4662 145.585 101.769H49.3508ZM146.897 101.899C141.733 96.54 136.436 91.3032 131.006 86.1884C129.509 84.7769 128.002 83.3767 126.487 81.9878C117.237 73.5055 107.683 65.4385 97.8252 57.7866L97.71 57.6972H48.4978V102.621H147.592L146.897 101.899ZM49.3508 101.769V58.5488H97.4178C106.923 65.9303 116.172 73.7248 125.162 81.9324C126.723 83.3568 128.274 84.7925 129.814 86.2396C135.197 91.2897 140.454 96.4662 145.585 101.769H49.3508ZM86.4749 49.2618C74.536 40.5815 61.9743 32.3505 49.1419 24.7987L48.4978 24.4197V50.0325H87.5349L86.4749 49.2618ZM49.3508 49.1809V25.9122C61.5585 33.1213 73.5123 40.9435 84.9117 49.1809L49.3508 49.1809ZM86.4749 49.2618C74.536 40.5815 61.9743 32.3505 49.1419 24.7987L48.4978 24.4197V50.0325H87.5349L86.4749 49.2618ZM49.3508 49.1809V25.9122C61.5585 33.1213 73.5123 40.9435 84.9117 49.1809L49.3508 49.1809ZM146.897 101.899C141.733 96.54 136.436 91.3032 131.006 86.1884C129.509 84.7769 128.002 83.3767 126.487 81.9878C117.237 73.5055 107.683 65.4385 97.8252 57.7866L97.71 57.6972H48.4978V102.621H147.592L146.897 101.899ZM49.3508 101.769V58.5488H97.4178C106.923 65.9303 116.172 73.7248 125.162 81.9324C126.723 83.3568 128.274 84.7925 129.814 86.2396C135.197 91.2897 140.454 96.4662 145.585 101.769H49.3508ZM6.27441 110.285V111.137H39.9669V123.486H6.27441V124.337H40.82V110.285H6.27441ZM48.4978 132.002V140.631L49.3509 140.552V132.854H180.726V132.002L48.4978 132.002ZM180.726 111.137V110.285H48.4978V124.337H180.726V123.486H49.3509V111.137L180.726 111.137ZM101.058 49.1809C84.6924 36.5776 67.4087 25.2089 49.3509 15.1689V6.54614L48.4978 6.62492V15.3144L49.1547 16.0354C67.1389 26.0481 84.3525 37.3819 100.653 49.9431L100.768 50.0325H180.726V49.1809L101.058 49.1809ZM39.9669 49.1809H6.27441V50.0325H40.82V7.33603L39.9669 7.4148L39.9669 49.1809ZM180.726 57.6972H110.434L111.353 58.4509C120.007 65.5598 128.505 73.0996 136.845 81.0702C138.031 82.2028 139.213 83.3447 140.39 84.4958C146.25 90.2124 151.997 96.1156 157.628 102.205L158.332 102.621H180.726V101.769H158.386C152.815 95.7395 147.123 89.8845 141.311 84.2042C140.149 83.0672 138.982 81.9381 137.811 80.8168C129.652 73.001 121.318 65.5783 112.81 58.5488H180.726V57.6972ZM6.27441 132.002V132.854H39.9669V141.421L40.82 141.342V132.002H6.27441ZM6.27441 57.6972V58.5488H39.9669V101.769H6.27441V102.621H40.82V57.6972H6.27441ZM86.4749 49.2618C74.536 40.5815 61.9743 32.3505 49.1419 24.7987L48.4978 24.4197V50.0325H87.5349L86.4749 49.2618ZM49.3508 49.1809V25.9122C61.5585 33.1213 73.5123 40.9435 84.9117 49.1809L49.3508 49.1809ZM146.897 101.899C141.733 96.54 136.436 91.3032 131.006 86.1884C129.509 84.7769 128.002 83.3767 126.487 81.9878C117.237 73.5055 107.683 65.4385 97.8252 57.7866L97.71 57.6972H48.4978V102.621H147.592L146.897 101.899ZM49.3508 101.769V58.5488H97.4178C106.923 65.9303 116.172 73.7248 125.162 81.9324C126.723 83.3568 128.274 84.7925 129.814 86.2396C135.197 91.2897 140.454 96.4662 145.585 101.769H49.3508ZM86.4749 49.2618C74.536 40.5815 61.9743 32.3505 49.1419 24.7987L48.4978 24.4197V50.0325H87.5349L86.4749 49.2618ZM49.3508 49.1809V25.9122C61.5585 33.1213 73.5123 40.9435 84.9117 49.1809L49.3508 49.1809ZM146.897 101.899C141.733 96.54 136.436 91.3032 131.006 86.1884C129.509 84.7769 128.002 83.3767 126.487 81.9878C117.237 73.5055 107.683 65.4385 97.8252 57.7866L97.71 57.6972H48.4978V102.621H147.592L146.897 101.899ZM49.3508 101.769V58.5488H97.4178C106.923 65.9303 116.172 73.7248 125.162 81.9324C126.723 83.3568 128.274 84.7925 129.814 86.2396C135.197 91.2897 140.454 96.4662 145.585 101.769H49.3508Z" fill="white"/>
<path d="M95.7646 56.0427C95.7646 66.8269 76.2047 90.8509 76.2047 90.8509C76.2047 90.8509 56.6448 66.8269 56.6448 56.0427C56.6448 50.8639 58.7055 45.8973 62.3737 42.2353C66.0419 38.5734 71.0171 36.5161 76.2047 36.5161C81.3923 36.5161 86.3674 38.5734 90.0356 42.2353C93.7038 45.8973 95.7646 50.8639 95.7646 56.0427Z" fill="#004BC7"/>
<path d="M85.1465 55.1935C85.1465 56.959 84.6221 58.6848 83.6396 60.1528C82.6571 61.6207 81.2606 62.7649 79.6267 63.4405C77.9928 64.1161 76.1949 64.2929 74.4604 63.9484C72.7259 63.604 71.1327 62.7538 69.8821 61.5055C68.6316 60.2571 67.78 58.6665 67.435 56.935C67.09 55.2034 67.2671 53.4086 67.9438 51.7775C68.6206 50.1464 69.7667 48.7523 71.2371 47.7715C72.7076 46.7906 74.4364 46.2671 76.2049 46.2671C77.3792 46.2666 78.5422 46.4971 79.6273 46.9455C80.7124 47.3939 81.6984 48.0514 82.5288 48.8804C83.3592 49.7094 84.0178 50.6936 84.467 51.7769C84.9161 52.8601 85.1471 54.0211 85.1465 55.1935Z" fill="white"/>
<path d="M76.2047 104.944C79.1167 104.944 81.4773 102.587 81.4773 99.6802C81.4773 96.7731 79.1167 94.4165 76.2047 94.4165C73.2927 94.4165 70.932 96.7731 70.932 99.6802C70.932 102.587 73.2927 104.944 76.2047 104.944Z" fill="#004BC7"/>
<path d="M126.724 33.602C131.029 33.602 134.52 30.1178 134.52 25.8197C134.52 21.5216 131.029 18.0374 126.724 18.0374C122.419 18.0374 118.928 21.5216 118.928 25.8197C118.928 30.1178 122.419 33.602 126.724 33.602Z" fill="#FF6584"/>
<path d="M151.17 49.8021H112.927C112.879 49.8027 112.831 49.7989 112.784 49.7908L130.871 18.5145C130.982 18.3197 131.142 18.1577 131.336 18.045C131.529 17.9322 131.75 17.8728 131.974 17.8728C132.198 17.8728 132.418 17.9322 132.612 18.045C132.805 18.1577 132.966 18.3197 133.076 18.5145L145.215 39.5033L145.796 40.5076L151.17 49.8021Z" fill="#946835"/>
<path opacity="0.2" d="M151.17 49.802H138.113L144.523 40.5074L144.984 39.8379L145.215 39.5032L145.796 40.5074L151.17 49.802Z" fill="black"/>
<path d="M172.464 49.8019H139.387L145.796 40.5075L146.258 39.8379L154.61 27.7255C155.158 26.9316 156.475 26.8822 157.119 27.5757C157.162 27.623 157.202 27.6731 157.239 27.7255L172.464 49.8019Z" fill="#946835"/>
<path d="M174.918 93.891C177.097 93.891 178.864 92.1275 178.864 89.9522C178.864 87.7769 177.097 86.0134 174.918 86.0134C172.739 86.0134 170.973 87.7769 170.973 89.9522C170.973 92.1275 172.739 93.891 174.918 93.891Z" fill="#478224"/>
<path d="M175.299 101.816H174.49L174.859 89.3589L175.299 101.816Z" fill="#CBCBCB"/>
<path d="M174.93 91.7199L175.798 90.5215L174.918 92.0165L174.823 91.8504L174.93 91.7199Z" fill="#CBCBCB"/>
<path d="M174.835 92.9298L173.967 91.7317L174.847 93.2264L174.942 93.0604L174.835 92.9298Z" fill="#CBCBCB"/>
<path d="M163.699 90.1113C166.918 90.1113 169.527 87.5068 169.527 84.294C169.527 81.0813 166.918 78.4768 163.699 78.4768C160.481 78.4768 157.872 81.0813 157.872 84.294C157.872 87.5068 160.481 90.1113 163.699 90.1113Z" fill="#478224"/>
<path d="M164.261 101.816H163.068L163.612 83.418L164.261 101.816Z" fill="#CBCBCB"/>
<path d="M163.717 86.9048L164.998 85.1353L163.7 87.343L163.559 87.0976L163.717 86.9048Z" fill="#CBCBCB"/>
<path d="M163.577 88.6919L162.295 86.9224L163.594 89.1299L163.735 88.8847L163.577 88.6919Z" fill="#CBCBCB"/>
<path d="M28.4111 93.891C30.5901 93.891 32.3566 92.1275 32.3566 89.9522C32.3566 87.7769 30.5901 86.0134 28.4111 86.0134C26.232 86.0134 24.4656 87.7769 24.4656 89.9522C24.4656 92.1275 26.232 93.891 28.4111 93.891Z" fill="#478224"/>
<path d="M28.7916 101.816H27.9835L28.3519 89.3589L28.7916 101.816Z" fill="#CBCBCB"/>
<path d="M28.4229 91.7199L29.2906 90.5215L28.4111 92.0165L28.3162 91.8504L28.4229 91.7199Z" fill="#CBCBCB"/>
<path d="M28.328 92.9298L27.4603 91.7317L28.3399 93.2264L28.4348 93.0604L28.328 92.9298Z" fill="#CBCBCB"/>
<path d="M17.1924 90.1113C20.4107 90.1113 23.0196 87.5068 23.0196 84.294C23.0196 81.0813 20.4107 78.4768 17.1924 78.4768C13.9741 78.4768 11.3652 81.0813 11.3652 84.294C11.3652 87.5068 13.9741 90.1113 17.1924 90.1113Z" fill="#478224"/>
<path d="M17.754 101.816H16.5605L17.1048 83.418L17.754 101.816Z" fill="#CBCBCB"/>
<path d="M17.2101 86.9048L18.4913 85.1353L17.1926 87.343L17.0522 87.0976L17.2101 86.9048Z" fill="#CBCBCB"/>
<path d="M17.0697 88.6919L15.7883 86.9224L17.0873 89.1299L17.2276 88.8847L17.0697 88.6919Z" fill="#CBCBCB"/>
</g>
<defs>
<clipPath id="clip0_55_6812">
<rect width="186" height="150" fill="white" transform="translate(0.5)"/>
</clipPath>
</defs>
</svg>
