<svg width="233" height="152" viewBox="0 0 233 152" fill="none" xmlns="http://www.w3.org/2000/svg">
<g clip-path="url(#clip0_47_6547)">
<path d="M212.52 151.55L205.866 131.344C205.866 131.344 213.186 138.709 213.186 144.752L211.872 130.778C211.872 130.778 215.625 135.876 215.25 143.619C214.875 151.362 212.52 151.55 212.52 151.55Z" fill="#B0B0B0"/>
<path d="M69.6112 133.152L63.1165 113.431C63.1165 113.431 70.2603 120.619 70.2603 126.517L68.9781 112.878C68.9781 112.878 72.6416 117.854 72.2752 125.411C71.9089 132.967 69.6112 133.152 69.6112 133.152Z" fill="#B0B0B0"/>
<path d="M170.982 142.252C170.993 155.224 145.422 151.234 114.116 151.261C82.8099 151.289 57.6249 155.323 57.6138 142.35C57.6026 129.378 83.1651 126.534 114.471 126.507C145.777 126.48 170.971 129.279 170.982 142.252Z" fill="#B0B0B0"/>
<path d="M233 151.254H0V151.847H233V151.254Z" fill="#3F3D56"/>
<path d="M149.042 124.732H144.949L143.001 108.849H149.042V124.732Z" fill="#A0616A"/>
<path d="M141.571 123.556H149.919V128.556H137.056V128.099C137.056 126.894 137.532 125.739 138.379 124.887C139.225 124.035 140.374 123.556 141.571 123.556Z" fill="#2F2E41"/>
<path d="M179.126 148.176H175.033L173.085 132.292H179.126V148.176Z" fill="#A0616A"/>
<path d="M171.655 147H180.003V152H167.14V151.543C167.14 150.338 167.615 149.182 168.462 148.33C169.309 147.478 170.457 147 171.655 147Z" fill="#2F2E41"/>
<path d="M198.004 100.988C198.287 100.643 198.492 100.239 198.603 99.806C198.714 99.3727 198.729 98.9201 198.648 98.4801C198.567 98.0401 198.39 97.6235 198.131 97.2595C197.873 96.8955 197.538 96.593 197.15 96.3733L187.644 57.4116L181.566 60.0428L192.873 97.7154C192.549 98.3949 192.485 99.1703 192.691 99.8945C192.898 100.619 193.361 101.242 193.994 101.645C194.626 102.048 195.384 102.204 196.123 102.083C196.862 101.962 197.532 101.573 198.004 100.988Z" fill="#A0616A"/>
<path d="M190.59 22.2458C190.251 21.8889 189.838 21.6113 189.381 21.4324C188.923 21.2535 188.433 21.1776 187.943 21.2103C187.453 21.2429 186.976 21.3831 186.546 21.6211C186.116 21.8591 185.744 22.1891 185.454 22.5878L170.741 24.2873L172.979 29.9973L186.36 27.4776C187.058 27.9226 187.894 28.0946 188.709 27.9609C189.525 27.8273 190.263 27.3973 190.785 26.7524C191.306 26.1075 191.574 25.2925 191.539 24.4619C191.503 23.6313 191.165 22.8428 190.59 22.2458Z" fill="#A0616A"/>
<path d="M166.344 96.9477L172.764 145.43L180.755 143.774C180.755 143.774 179.58 108.466 183.576 104.21C187.571 99.953 178.437 92.4963 178.437 92.4963L166.344 96.9477Z" fill="#2F2E41"/>
<path d="M168.999 83.5937L166.049 88.045C166.049 88.045 143.339 78.5491 143.339 93.6833C143.339 108.818 142.04 119.088 141.57 119.798C141.1 120.507 147.008 122.348 149.828 121.875C149.828 121.875 153.307 97.4762 153.072 96.0574C153.072 96.0574 175.35 107.047 179.58 106.101C183.811 105.155 184.81 101.807 185.515 99.9152C186.22 98.0234 185.22 83.0002 185.22 83.0002L171.119 78.6704L168.999 83.5937Z" fill="#2F2E41"/>
<path d="M169.397 56.8677L168.556 55.8527C168.556 55.8527 159.141 34.5374 162.84 28.7856C166.539 23.0339 182.679 22.188 183.184 22.5264C183.688 22.8647 181.979 27.2575 183.156 29.2875C183.156 29.2875 170.652 32.015 169.812 32.3534C168.971 32.6917 176.29 45.195 176.29 45.195L175.45 52.8076L169.397 56.8677Z" fill="#305B3A"/>
<path d="M185.874 46.3793C185.874 46.3793 177.131 47.3943 176.795 47.3943C176.458 47.3943 176.29 45.1951 176.29 45.1951L168.556 55.8527C168.556 55.8527 164.746 86.7719 165.754 86.2644C166.763 85.7569 185.369 88.6715 185.537 87.3182C185.706 85.9648 185.369 79.1981 185.874 78.8597C186.378 78.5214 194.617 57.5444 194.617 57.5444C194.617 57.5444 193.776 53.146 190.918 51.6235C188.059 50.101 185.874 46.3793 185.874 46.3793Z" fill="#305B3A"/>
<path d="M191.926 54.6687L194.617 57.5446C194.617 57.5446 198.614 90.5911 196.428 91.6061C194.242 92.6211 189.939 92.4964 189.939 92.4964L185.706 76.8299L191.926 54.6687Z" fill="#305B3A"/>
<path d="M177.472 44.2866C181.746 44.2866 185.211 40.8005 185.211 36.5001C185.211 32.1997 181.746 28.7136 177.472 28.7136C173.198 28.7136 169.733 32.1997 169.733 36.5001C169.733 40.8005 173.198 44.2866 177.472 44.2866Z" fill="#A0616A"/>
<path d="M175.656 37.715C175.552 36.0994 173.526 36.044 171.917 36.0287C170.308 36.0134 168.384 36.0712 167.473 34.7362C166.872 33.854 166.987 32.6292 167.484 31.6833C167.981 30.7374 168.798 30.0099 169.603 29.31C171.68 27.5031 173.82 25.7106 176.313 24.5541C178.807 23.3975 181.729 22.9302 184.314 23.8586C187.491 24.9991 191.785 30.8697 192.156 34.2426C192.526 37.6154 191.187 41.0538 188.929 43.5743C186.67 46.0947 181.501 45.0778 178.249 45.9744C180.226 43.1583 178.923 38.0414 175.755 36.7264L175.656 37.715Z" fill="#2F2E41"/>
<path d="M106.685 138.434C116.945 138.434 125.263 130.065 125.263 119.742C125.263 109.418 116.945 101.049 106.685 101.049C96.4248 101.049 88.1072 109.418 88.1072 119.742C88.1072 130.065 96.4248 138.434 106.685 138.434Z" fill="#004BC7"/>
<path d="M94.2784 99.7212C91.7037 99.7213 89.184 98.9706 87.0245 97.5598C84.865 96.1491 83.1582 94.1388 82.1107 91.7723L52.6311 24.9753C51.6546 22.7626 51.1381 20.3724 51.1135 17.9515C51.0888 15.5307 51.5565 13.1303 52.4877 10.898C53.419 8.66563 54.7941 6.64852 56.5287 4.97059C58.2632 3.29267 60.3205 1.9894 62.574 1.14087C64.8276 0.292351 67.2298 -0.0834911 69.633 0.0364527C72.0362 0.156397 74.3896 0.76959 76.5487 1.83834C78.7077 2.9071 80.6267 4.40883 82.1876 6.25123C83.7486 8.09363 84.9186 10.2378 85.6257 12.5519L106.972 82.4115C107.584 84.4111 107.72 86.527 107.371 88.5894C107.022 90.6517 106.197 92.6029 104.963 94.2863C103.728 95.9697 102.118 97.3383 100.263 98.2822C98.4073 99.2261 96.3576 99.7189 94.2784 99.7212Z" fill="#004BC7"/>
</g>
<defs>
<clipPath id="clip0_47_6547">
<rect width="233" height="152" fill="white"/>
</clipPath>
</defs>
</svg>
