<svg width="249" height="104" viewBox="0 0 249 104" fill="none" xmlns="http://www.w3.org/2000/svg">
<g clip-path="url(#clip0_47_2895)">
<path d="M187.631 44.7287V25.3623C187.631 23.4313 189.206 21.8605 191.142 21.8605H203.844C205.78 21.8605 207.355 23.4313 207.355 25.3623V44.7287C207.355 46.6597 205.78 48.2305 203.844 48.2305H191.142C189.206 48.2305 187.631 46.6597 187.631 44.7287Z" fill="#CC6E1C"/>
<path d="M194.136 30.2319H200.85V28.5576H194.136V30.2319Z" fill="#3F3D56"/>
<path d="M195.814 27.3019H199.172V21.8604H195.814V27.3019Z" fill="#3F3D56"/>
<path d="M195.814 48.2306H199.172V42.7891H195.814V48.2306Z" fill="#3F3D56"/>
<path d="M178.609 45.5114H159.193C157.257 45.5114 155.682 43.9405 155.682 42.0095V29.3404C155.682 27.4094 157.257 25.8385 159.193 25.8385H178.609C180.545 25.8385 182.12 27.4094 182.12 29.3404V42.0095C182.12 43.9405 180.545 45.5114 178.609 45.5114Z" fill="#CC6E1C"/>
<path d="M172.678 28.5592H165.963V30.2335H172.678V28.5592Z" fill="#3F3D56"/>
<path d="M161.137 37.3492V34.0006H155.682V37.3492H161.137Z" fill="#3F3D56"/>
<path d="M182.12 37.3492V34.0006H176.664V37.3492H182.12Z" fill="#3F3D56"/>
<path d="M21.1108 81.7257L17.8695 62.8664C16.4292 54.4862 22.6475 46.7315 31.1603 46.2917L77.3681 43.9046L88.3961 25.7752C89.8581 23.3718 92.4721 21.9041 95.2905 21.9041H128.492C131.102 21.9041 133.307 23.8344 133.646 26.4156L134.489 40.9219L217.264 41.1691L227.677 75.3978L218.012 74.9277L218.507 85.31L205.868 85.8044L201.654 73.9212C200.861 71.6836 197.385 69.1606 193.771 67.0497C185.67 62.3175 175.263 63.8363 169.132 70.928C167.686 72.601 166.675 74.3441 166.392 75.9785L164.48 87.0404L71.7919 85.5572L59.6442 68.6079C56.0553 64.7123 39.1132 63.2813 37.5874 68.6079L28.4217 82.0965L21.1108 81.7257Z" fill="#004BC7"/>
<path d="M121.852 32.9356L124.579 45.7586L89.8833 46.5002L97.2113 30.8068C97.876 29.3832 99.3353 28.4993 100.908 28.5675L117.534 29.2886C119.639 29.3798 121.415 30.88 121.852 32.9356Z" fill="white"/>
<path d="M85.1747 45.5114L92.114 27.7133L90.2972 25.9011L78.979 43.0394L81.2788 46.5002L85.1747 45.5114Z" fill="white"/>
<path d="M184.555 103.355C193.588 103.355 200.911 96.051 200.911 87.0404C200.911 78.0299 193.588 70.7255 184.555 70.7255C175.521 70.7255 168.198 78.0299 168.198 87.0404C168.198 96.051 175.521 103.355 184.555 103.355Z" fill="#3F3D56"/>
<path d="M173.278 87.0404C173.278 80.8385 178.337 75.793 184.554 75.793C190.772 75.793 195.831 80.8385 195.831 87.0404C195.831 93.2423 190.772 98.2879 184.554 98.2879C178.337 98.2879 173.278 93.2423 173.278 87.0404ZM173.526 87.0404C173.526 93.1059 178.473 98.0407 184.554 98.0407C190.635 98.0407 195.583 93.1059 195.583 87.0404C195.583 80.9749 190.635 76.0402 184.554 76.0402C178.473 76.0402 173.526 80.9749 173.526 87.0404Z" fill="white"/>
<path d="M174.889 87.0405C174.889 92.3648 179.216 96.6811 184.554 96.6811C189.892 96.6811 194.22 92.3648 194.22 87.0405C194.22 81.7161 189.892 77.3998 184.554 77.3998C179.216 77.3998 174.889 81.7161 174.889 87.0405ZM190.837 84.7319L189.125 85.8451L188.467 84.8382L190.837 84.7319ZM188.23 90.3938L188.686 89.2813L190.122 91.1654L188.23 90.3938ZM183.845 94.2092L185.05 92.1703V94.2092H183.845ZM183.845 82.405L185.05 80.3661V82.405H183.845ZM178.491 91.1654L179.927 89.2813L180.383 90.3938L178.491 91.1654ZM177.776 84.7319L180.146 84.8382L179.488 85.8451L177.776 84.7319Z" fill="#E6E6E6"/>
<path d="M47.2567 103.355C56.2903 103.355 63.6134 96.051 63.6134 87.0404C63.6134 78.0299 56.2903 70.7255 47.2567 70.7255C38.2231 70.7255 30.8999 78.0299 30.8999 87.0404C30.8999 96.051 38.2231 103.355 47.2567 103.355Z" fill="#3F3D56"/>
<path d="M35.9805 87.0404C35.9805 80.8385 41.039 75.793 47.2567 75.793C53.4745 75.793 58.533 80.8385 58.533 87.0404C58.533 93.2423 53.4745 98.2879 47.2567 98.2879C41.039 98.2879 35.9805 93.2423 35.9805 87.0404ZM36.2283 87.0404C36.2283 93.1059 41.1756 98.0407 47.2567 98.0407C53.3379 98.0407 58.2851 93.1059 58.2851 87.0404C58.2851 80.9749 53.3379 76.0402 47.2567 76.0402C41.1756 76.0402 36.2283 80.9749 36.2283 87.0404Z" fill="white"/>
<path d="M37.5913 87.0405C37.5913 92.3648 41.9186 96.6811 47.2567 96.6811C52.5947 96.6811 56.922 92.3648 56.922 87.0405C56.922 81.7161 52.5947 77.3998 47.2567 77.3998C41.9186 77.3998 37.5913 81.7161 37.5913 87.0405ZM53.5395 84.7319L51.827 85.8451L51.169 84.8382L53.5395 84.7319ZM50.9324 90.3938L51.3884 89.2813L52.8244 91.1654L50.9324 90.3938ZM46.5473 94.2092L47.7523 92.1703V94.2092H46.5473ZM46.5473 82.405L47.7523 80.3661V82.405H46.5473ZM41.1933 91.1654L42.6292 89.2813L43.0853 90.3938L41.1933 91.1654ZM40.4782 84.7319L42.8486 84.8382L42.1907 85.8451L40.4782 84.7319Z" fill="#E6E6E6"/>
<path d="M115.534 52.3093H124.951V50.3318H115.534V52.3093Z" fill="#3F3D56"/>
<path d="M248.273 91.1301C248.185 90.8622 247.52 90.9802 247.456 90.7405C247.392 90.5017 248.031 90.3015 248.52 89.6286C248.609 89.5073 249.165 88.7426 248.952 88.4209C248.547 87.8113 245.733 89.3297 245.057 88.4776C244.909 88.2906 244.848 87.9696 244.406 87.3722C244.231 87.1345 244.118 87.0197 243.983 87.0231C243.792 87.028 243.724 87.2664 243.423 87.6984C242.973 88.3462 242.81 88.2649 242.514 88.7957C242.293 89.1897 242.267 89.4415 242.108 89.4563C241.884 89.4773 241.791 88.9867 241.516 88.9677C241.236 88.9483 240.955 89.4331 240.816 89.8118C240.555 90.5225 240.717 91.0657 240.753 91.6071C240.792 92.1954 240.7 93.0567 240.059 94.1621L234.014 103.769C235.313 101.81 238.998 96.4699 240.482 94.5111C240.911 93.9456 241.372 93.3778 242.081 93.271C242.763 93.1681 243.594 93.505 244.753 93.4854C244.888 93.4831 245.265 93.4719 245.357 93.2727C245.432 93.1081 245.244 92.9649 245.313 92.8101C245.404 92.6025 245.817 92.6916 246.38 92.5537C246.777 92.4564 247.047 92.2958 247.279 92.1576C247.348 92.116 248.39 91.4868 248.273 91.1301Z" fill="#3E9032"/>
<path d="M232.44 93.3731C232.283 93.3387 232.149 93.6985 232.013 93.6606C231.877 93.6229 231.962 93.2526 231.773 92.8187C231.738 92.7405 231.523 92.2474 231.303 92.2591C230.886 92.2812 230.821 94.0971 230.207 94.182C230.072 94.2006 229.897 94.1378 229.475 94.1817C229.308 94.1991 229.219 94.2212 229.181 94.2881C229.129 94.3831 229.226 94.4853 229.352 94.757C229.541 95.1645 229.454 95.2206 229.63 95.519C229.76 95.7405 229.876 95.826 229.838 95.908C229.783 96.0241 229.515 95.928 229.426 96.057C229.336 96.1886 229.494 96.4658 229.64 96.6432C229.914 96.976 230.228 97.0536 230.505 97.1923C230.806 97.343 231.203 97.6362 231.562 98.2689L234.545 104C233.956 102.799 232.391 99.4545 231.856 98.1625C231.701 97.7895 231.555 97.4002 231.707 97.0223C231.853 96.6584 232.258 96.3491 232.583 95.7759C232.621 95.709 232.724 95.5213 232.653 95.419C232.594 95.3344 232.469 95.3852 232.412 95.307C232.337 95.2022 232.5 95.0257 232.594 94.7104C232.661 94.488 232.66 94.3097 232.659 94.1563C232.658 94.1101 232.649 93.4188 232.44 93.3731Z" fill="#3E9032"/>
<path d="M235.416 94.7714L235.51 93.9079L235.567 93.8537C235.833 93.6029 236 93.3372 236.062 93.0637C236.072 93.0202 236.08 92.9763 236.087 92.9315C236.119 92.7539 236.157 92.5333 236.328 92.304C236.424 92.1763 236.677 91.8877 236.939 91.9885C237.009 92.0149 237.057 92.0605 237.09 92.1088C237.098 92.1004 237.107 92.092 237.116 92.083C237.229 91.9736 237.308 91.9335 237.384 91.8949C237.442 91.8652 237.502 91.8346 237.605 91.7532C237.649 91.7175 237.685 91.6853 237.715 91.6583C237.807 91.5767 237.924 91.481 238.085 91.5189C238.255 91.5653 238.314 91.7273 238.352 91.8346C238.422 92.0259 238.443 92.1574 238.457 92.2447C238.462 92.2766 238.468 92.3125 238.472 92.3241C238.51 92.4178 238.978 92.4421 239.154 92.4522C239.549 92.4736 239.892 92.4921 239.974 92.7624C240.033 92.9557 239.91 93.1666 239.597 93.4058C239.5 93.4802 239.403 93.5315 239.318 93.5699C239.37 93.6191 239.412 93.686 239.414 93.777C239.42 93.9927 239.198 94.1581 238.755 94.2696C238.645 94.2977 238.497 94.3348 238.303 94.3254C238.212 94.3209 238.132 94.3069 238.064 94.2939C238.054 94.3327 238.035 94.3729 238.002 94.4111C237.903 94.5237 237.744 94.5523 237.528 94.4889C237.289 94.4226 237.101 94.3324 236.934 94.2531C236.789 94.184 236.664 94.125 236.559 94.1089C236.363 94.0816 236.181 94.202 235.963 94.3623L235.416 94.7714Z" fill="#3E9032"/>
<path d="M236.976 89.8535L236.115 89.982L236.048 89.9403C235.737 89.7472 235.437 89.654 235.156 89.6632C235.112 89.6646 235.067 89.6683 235.022 89.6721C234.842 89.6871 234.618 89.7058 234.352 89.5988C234.204 89.5388 233.86 89.3676 233.891 89.09C233.899 89.0152 233.931 88.9577 233.969 88.9136C233.959 88.9077 233.949 88.9016 233.938 88.8951C233.803 88.814 233.744 88.748 233.688 88.6844C233.644 88.6356 233.599 88.5851 233.494 88.5072C233.448 88.4731 233.408 88.4466 233.374 88.4243C233.272 88.3566 233.149 88.2677 233.145 88.1031C233.147 87.927 233.289 87.8296 233.383 87.765C233.551 87.6498 233.673 87.5959 233.755 87.5601C233.784 87.5471 233.817 87.5323 233.828 87.5251C233.909 87.4654 233.814 87.0079 233.779 86.8355C233.699 86.4483 233.631 86.1132 233.872 85.9652C234.044 85.8592 234.28 85.9245 234.591 86.1653C234.688 86.2404 234.763 86.3212 234.821 86.3933C234.856 86.3305 234.91 86.2735 234.998 86.2479C235.205 86.1877 235.422 86.3596 235.643 86.7587C235.698 86.8578 235.771 86.9913 235.811 87.1806C235.83 87.2698 235.837 87.3504 235.841 87.4195C235.882 87.4194 235.925 87.4272 235.971 87.4499C236.105 87.5165 236.173 87.6629 236.167 87.8875C236.163 88.1345 236.123 88.3393 236.088 88.5199C236.058 88.6776 236.033 88.8134 236.044 88.9189C236.067 89.1145 236.23 89.2599 236.441 89.4297L236.976 89.8535Z" fill="#3E9032"/>
<path d="M237.092 87.2742L237.186 86.4107L237.244 86.3565C237.51 86.1057 237.676 85.84 237.738 85.5665C237.748 85.523 237.756 85.4791 237.764 85.4343C237.795 85.2567 237.834 85.0361 238.005 84.8068C238.101 84.6791 238.354 84.3905 238.615 84.4913C238.686 84.5177 238.733 84.5633 238.766 84.6116C238.775 84.6032 238.783 84.5948 238.792 84.5858C238.905 84.4764 238.984 84.4363 239.06 84.3977C239.119 84.368 239.179 84.3375 239.281 84.256C239.326 84.2203 239.362 84.1881 239.392 84.1611C239.484 84.0795 239.601 83.9839 239.762 84.0217C239.932 84.0681 239.99 84.2301 240.029 84.3374C240.098 84.5287 240.119 84.6603 240.134 84.7475C240.139 84.7794 240.144 84.8153 240.149 84.8269C240.186 84.9206 240.654 84.9449 240.83 84.955C241.226 84.9764 241.568 84.9949 241.65 85.2652C241.71 85.4585 241.586 85.6694 241.274 85.9086C241.177 85.983 241.079 86.0343 240.994 86.0727C241.047 86.1219 241.088 86.1888 241.091 86.2798C241.096 86.4955 240.875 86.6609 240.432 86.7724C240.322 86.8005 240.174 86.8376 239.98 86.8282C239.889 86.8237 239.809 86.8098 239.741 86.7967C239.73 86.8355 239.712 86.8757 239.678 86.9139C239.58 87.0265 239.42 87.0551 239.204 86.9917C238.966 86.9254 238.777 86.8352 238.611 86.7559C238.465 86.6869 238.34 86.6278 238.235 86.6117C238.04 86.5844 237.857 86.7048 237.639 86.8651L237.092 87.2742Z" fill="#3E9032"/>
<path d="M234.3 103.818L234.148 103.668L233.936 103.646C233.937 103.626 233.936 103.579 233.934 103.507C233.926 103.11 233.901 101.901 234.07 100.043C234.187 98.7467 234.384 97.4306 234.655 96.1308C234.926 94.829 235.207 93.8604 235.433 93.0819C235.603 92.4947 235.775 91.9377 235.943 91.3953C236.392 89.9459 236.815 88.5767 237.077 87.0151C237.136 86.6665 237.258 85.9408 237.008 85.0843C236.863 84.5875 236.616 84.12 236.271 83.695L236.605 83.4266C236.984 83.8963 237.258 84.4141 237.419 84.9656C237.696 85.9153 237.563 86.706 237.499 87.0859C237.232 88.6752 236.805 90.0574 236.352 91.5208C236.185 92.0613 236.014 92.6158 235.844 93.2006C235.62 93.9719 235.341 94.9321 235.074 96.2172C234.806 97.5014 234.612 98.8014 234.496 100.082C234.329 101.916 234.354 103.107 234.362 103.498C234.366 103.707 234.367 103.75 234.3 103.818Z" fill="#3E9032"/>
<path d="M235.358 84.1863C235.341 84.1825 235.323 84.1783 235.306 84.1731C234.955 84.0749 234.673 83.7893 234.468 83.3245C234.372 83.1059 234.35 82.8758 234.305 82.417C234.298 82.3463 234.266 81.9884 234.305 81.514C234.33 81.204 234.363 81.0795 234.448 80.9818C234.542 80.8728 234.668 80.8105 234.802 80.7792C234.806 80.7381 234.819 80.698 234.846 80.66C234.956 80.5021 235.14 80.567 235.24 80.6007C235.29 80.6188 235.353 80.6417 235.423 80.6535C235.534 80.6726 235.6 80.6532 235.701 80.6243C235.797 80.5965 235.916 80.562 236.081 80.5649C236.406 80.5694 236.647 80.7151 236.726 80.7631C237.144 81.0137 237.288 81.4134 237.455 81.8763C237.489 81.9691 237.599 82.3044 237.624 82.7363C237.643 83.0478 237.602 83.1753 237.555 83.2665C237.459 83.454 237.312 83.5409 236.948 83.7237C236.567 83.9153 236.377 84.0112 236.22 84.0605C235.856 84.1745 235.627 84.2462 235.358 84.1863Z" fill="#3E9032"/>
<path d="M124.892 101.59L128.333 101.589L129.97 88.3505L124.891 88.3508L124.892 101.59Z" fill="#FFB6B6"/>
<path d="M136.681 101.512C136.788 101.692 136.845 102.273 136.845 102.482C136.845 103.125 136.322 103.647 135.677 103.647L125.02 103.647C124.58 103.647 124.223 103.291 124.223 102.852V102.41C124.223 102.41 123.696 101.08 124.782 99.4402C124.782 99.4402 126.131 100.724 128.146 98.7133L128.741 97.6393L133.043 100.778L135.428 101.071C135.95 101.135 136.413 101.061 136.681 101.512Z" fill="#2F2E41"/>
<path d="M109.431 101.59L112.872 101.589L114.509 88.3505L109.431 88.3508L109.431 101.59Z" fill="#FFB6B6"/>
<path d="M121.221 101.512C121.328 101.692 121.384 102.273 121.384 102.482C121.384 103.125 120.861 103.647 120.216 103.647L109.56 103.647C109.12 103.647 108.763 103.291 108.763 102.852V102.41C108.763 102.41 108.236 101.08 109.321 99.4402C109.321 99.4402 110.67 100.724 112.686 98.7133L113.28 97.6393L117.583 100.778L119.968 101.071C120.49 101.135 120.952 101.061 121.221 101.512Z" fill="#2F2E41"/>
<path d="M124.346 11.1919L125 17.2734L117.378 16.6218L118.685 10.9747L124.346 11.1919Z" fill="#FFB6B6"/>
<path opacity="0.1" d="M124.346 11.1919L125 17.2734L117.378 16.6218L118.685 10.9747L124.346 11.1919Z" fill="black"/>
<path d="M121.625 11.9521C124.391 11.9521 126.633 9.71556 126.633 6.95664C126.633 4.19772 124.391 1.96118 121.625 1.96118C118.859 1.96118 116.616 4.19772 116.616 6.95664C116.616 9.71556 118.859 11.9521 121.625 11.9521Z" fill="#FFB6B6"/>
<path d="M124.891 14.7757L133.274 19.6626L130.528 32.9114L132.403 50.7213L131.097 94.3773L123.04 93.5085L121.951 56.3683L115.637 94.8117H107.813L109.104 53.3276L113.024 35.7349L110.628 16.6218L117.923 14.3413L124.891 14.7757Z" fill="#2F2E41"/>
<path d="M125.217 8.36844C125.217 8.36844 125.653 6.84808 126.633 6.95668C127.613 7.06528 127.83 6.1965 127.613 5.76212C127.395 5.32773 126.959 3.15579 126.959 3.15579C126.959 3.15579 127.177 1.63543 125.871 1.41824C124.564 1.20104 124.129 0.983849 123.911 0.549462C123.693 0.115073 120.427 -0.319313 119.338 0.332268C118.249 0.983849 117.378 2.234 116.616 2.5863C115.854 2.9386 115.201 3.59018 115.636 4.67615C116.072 5.76212 116.703 7.88604 116.703 7.88604C116.703 7.88604 117.814 7.49967 118.032 8.15125C118.249 8.80283 117.378 7.93406 118.467 6.19651C119.556 4.45895 119.556 2.7214 121.298 3.37298C123.04 4.02457 125 3.80737 124.782 5.11054C124.564 6.4137 125.217 8.36844 125.217 8.36844Z" fill="#2F2E41"/>
<path d="M128.951 46.8251C127.903 47.932 127.626 49.3687 128.332 50.0339C129.039 50.6991 130.461 50.3409 131.509 49.2334C131.934 48.7968 132.248 48.265 132.424 47.6825L136.806 42.9365L134.529 40.9331L130.451 45.8246C129.878 46.0338 129.364 46.3768 128.951 46.8251Z" fill="#FFB6B6"/>
<path d="M133.186 19.554L140.564 32.0926L141.658 37.8167L134.552 46.8118L131.546 42.9957L135.099 37.8167L129.36 27.7313L133.186 19.554Z" fill="#2F2E41"/>
<path d="M112.441 45.6576V30.8739C112.441 28.6207 114.278 26.7876 116.537 26.7876H139.194C141.453 26.7876 143.291 28.6207 143.291 30.8739V45.6576C143.291 47.9109 141.453 49.7439 139.194 49.7439H116.537C114.278 49.7439 112.441 47.9109 112.441 45.6576Z" fill="#CC6E1C"/>
<path d="M123.459 36.1185H131.293V34.1648H123.459V36.1185Z" fill="#3F3D56"/>
<path d="M130.651 49.613V45.7056H124.285V49.613H130.651Z" fill="#3F3D56"/>
<path d="M130.95 30.826V26.9186H124.584V30.826H130.95Z" fill="#3F3D56"/>
<path d="M114.734 44.0016C115.782 45.1085 116.059 46.5452 115.352 47.2104C114.646 47.8756 113.224 47.5174 112.176 46.41C111.751 45.9733 111.437 45.4415 111.26 44.8591L106.879 40.113L109.156 38.1096L113.233 43.0011C113.806 43.2103 114.321 43.5534 114.734 44.0016Z" fill="#FFB6B6"/>
<path d="M110.499 16.7305L103.12 29.2691L102.027 34.9932L109.132 43.9883L112.138 40.1722L108.586 34.9932L114.325 24.9078L110.499 16.7305Z" fill="#2F2E41"/>
<path d="M18.7522 76.5183C22.4478 76.5183 25.4436 73.9174 25.4436 70.7091C25.4436 67.5009 22.4478 64.9 18.7522 64.9C15.0566 64.9 12.0608 67.5009 12.0608 70.7091C12.0608 73.9174 15.0566 76.5183 18.7522 76.5183Z" fill="#E6E6E6"/>
</g>
<defs>
<clipPath id="clip0_47_2895">
<rect width="249" height="104" fill="white"/>
</clipPath>
</defs>
</svg>
