<svg width="209" height="186" viewBox="0 0 209 186" fill="none" xmlns="http://www.w3.org/2000/svg">
<g clip-path="url(#clip0_59_7442)">
<path d="M1.66554 41.7365C1.25824 41.851 0.913012 42.1223 0.705585 42.4909C0.498158 42.8595 0.445467 43.2953 0.559074 43.7026L27.238 138.935C27.3526 139.342 27.624 139.687 27.9928 139.894C28.3615 140.101 28.7975 140.154 29.2051 140.04L127.557 112.515C127.964 112.4 128.31 112.129 128.517 111.76C128.725 111.392 128.777 110.956 128.664 110.549L101.985 15.3167C101.87 14.9096 101.599 14.5645 101.23 14.3572C100.861 14.1499 100.425 14.0972 100.018 14.2107L1.66554 41.7365Z" fill="#E6E6E6"/>
<path d="M30.441 135.543L124.164 109.313L98.7815 18.7075L5.05817 44.9379L30.441 135.543Z" fill="white"/>
<path d="M17.4496 57.0364C16.8243 57.2114 16.5665 58.2495 16.875 59.3505C17.1834 60.4515 17.9431 61.2049 18.5684 61.0299L61.3143 49.0667C61.9396 48.8917 62.1974 47.8535 61.8889 46.7525C61.5805 45.6515 60.8208 44.8981 60.1955 45.0731L17.4496 57.0364Z" fill="#E6E6E6"/>
<path d="M20.8921 69.3242C20.2668 69.4992 20.009 70.5374 20.3174 71.6384C20.6259 72.7394 21.3856 73.4928 22.0109 73.3178L64.7567 61.3545C65.382 61.1795 65.6398 60.1413 65.3314 59.0403C65.0229 57.9394 64.2632 57.1859 63.6379 57.3609L20.8921 69.3242Z" fill="#E6E6E6"/>
<path d="M24.2948 81.4707C23.6695 81.6457 23.4117 82.6839 23.7201 83.7849C24.0286 84.8859 24.7883 85.6393 25.4136 85.4643L68.1594 73.501C68.7847 73.326 69.0425 72.2878 68.7341 71.1868C68.4256 70.0858 67.6659 69.3324 67.0406 69.5074L24.2948 81.4707Z" fill="#E6E6E6"/>
<path d="M27.7372 93.7585C27.1119 93.9335 26.8541 94.9717 27.1626 96.0727C27.471 97.1737 28.2307 97.9271 28.856 97.7521L71.6019 85.7888C72.2272 85.6138 72.485 84.5757 72.1765 83.4747C71.8681 82.3737 71.1084 81.6203 70.4831 81.7953L27.7372 93.7585Z" fill="#E6E6E6"/>
<path d="M81.8885 39.1436C81.6259 39.2168 81.3802 39.341 81.1657 39.5091C80.9511 39.6772 80.7718 39.886 80.638 40.1234C80.5042 40.3608 80.4185 40.6223 80.3859 40.8929C80.3533 41.1634 80.3743 41.4377 80.4478 41.7002C80.5213 41.9626 80.6459 42.2079 80.8143 42.4222C80.9828 42.6365 81.1918 42.8155 81.4295 42.9489C81.6672 43.0824 81.9289 43.1677 82.1997 43.2C82.4704 43.2323 82.7448 43.211 83.0073 43.1372L90.9984 40.9007C91.5282 40.7524 91.9774 40.3998 92.2472 39.9205C92.5169 39.4412 92.5851 38.8744 92.4368 38.3448C92.2884 37.8152 91.9357 37.3662 91.4561 37.0966C90.9765 36.827 90.4094 36.7588 89.8796 36.9071L81.8885 39.1436Z" fill="#E6E6E6"/>
<path d="M85.2642 51.1934C85.0016 51.2666 84.756 51.3908 84.5414 51.5589C84.3268 51.727 84.1475 51.9358 84.0137 52.1732C83.8799 52.4106 83.7942 52.6721 83.7616 52.9427C83.729 53.2132 83.75 53.4875 83.8236 53.75C83.8971 54.0124 84.0216 54.2577 84.1901 54.472C84.3585 54.6863 84.5676 54.8653 84.8053 54.9987C85.043 55.1322 85.3047 55.2175 85.5754 55.2498C85.8461 55.2821 86.1206 55.2608 86.383 55.187L94.3741 52.9505C94.904 52.8022 95.3532 52.4496 95.6229 51.9703C95.8927 51.491 95.9609 50.9242 95.8125 50.3946C95.6642 49.865 95.3114 49.416 94.8318 49.1464C94.3523 48.8768 93.7852 48.8086 93.2553 48.9569L85.2642 51.1934Z" fill="#E6E6E6"/>
<path d="M88.6399 63.243C88.3776 63.3164 88.1322 63.4407 87.918 63.6089C87.7037 63.7771 87.5247 63.9858 87.3911 64.2232C87.2575 64.4605 87.1721 64.7218 87.1395 64.9922C87.107 65.2625 87.1281 65.5367 87.2015 65.7989C87.275 66.0611 87.3994 66.3063 87.5677 66.5205C87.7359 66.7346 87.9447 66.9136 88.1822 67.0471C88.4197 67.1806 88.6811 67.266 88.9516 67.2985C89.2221 67.331 89.4963 67.31 89.7587 67.2365L97.7498 65.0001C98.2796 64.8518 98.7289 64.4992 98.9986 64.0199C99.2684 63.5405 99.3366 62.9738 99.1882 62.4442C99.0398 61.9146 98.6871 61.4656 98.2075 61.196C97.728 60.9264 97.1609 60.8582 96.631 61.0065L88.6399 63.243Z" fill="#E6E6E6"/>
<path d="M92.0156 75.2929C91.4863 75.4417 91.0378 75.7943 90.7685 76.2735C90.4993 76.7526 90.4313 77.3189 90.5795 77.8481C90.7278 78.3773 91.0801 78.826 91.5592 79.0957C92.0382 79.3654 92.6048 79.434 93.1344 79.2864L101.126 77.05C101.655 76.9012 102.103 76.5485 102.373 76.0694C102.642 75.5903 102.71 75.0239 102.562 74.4947C102.413 73.9655 102.061 73.5168 101.582 73.2471C101.103 72.9774 100.536 72.9088 100.007 73.0564L92.0156 75.2929Z" fill="#E6E6E6"/>
<path d="M95.2408 96.1791C94.9062 96.2723 94.5932 96.4306 94.3198 96.6448C94.0464 96.859 93.8179 97.125 93.6474 97.4275C93.4769 97.7301 93.3678 98.0633 93.3262 98.408C93.2846 98.7527 93.3114 99.1023 93.4051 99.4366C93.4988 99.771 93.6575 100.084 93.8721 100.357C94.0868 100.63 94.3531 100.858 94.656 101.028C94.9589 101.198 95.2924 101.307 95.6373 101.348C95.9823 101.389 96.332 101.362 96.6664 101.268L106.849 98.418C107.524 98.229 108.096 97.7798 108.44 97.169C108.784 96.5582 108.871 95.836 108.682 95.1612C108.493 94.4864 108.043 93.9143 107.432 93.5708C106.821 93.2272 106.098 93.1404 105.423 93.3293L95.2408 96.1791Z" fill="#004BC7"/>
<path d="M105.72 85.9021L30.3718 106.99L30.5594 107.659L105.908 86.5715L105.72 85.9021Z" fill="#E6E6E6"/>
<path d="M181.406 175.905L175.363 177.366L166.852 154.763L175.771 152.608L181.406 175.905Z" fill="#A0616A"/>
<path d="M164.937 186L164.896 185.831C164.417 183.841 164.748 181.743 165.815 179.996C166.882 178.249 168.599 176.997 170.589 176.514L182.412 173.657L184.268 181.329L164.937 186Z" fill="#2F2E41"/>
<path d="M154.654 180.02L148.437 180.02L145.48 156.051L154.655 156.052L154.654 180.02Z" fill="#A0616A"/>
<path d="M156.16 185.964L136.273 185.963V185.789C136.273 183.742 137.087 181.779 138.535 180.331C139.983 178.884 141.948 178.07 143.996 178.07H143.996L156.16 178.071L156.16 185.964Z" fill="#2F2E41"/>
<path d="M145.475 170.663L139.438 98.7567L164.427 94.1528L164.526 94.135L171.84 98.8344L169.294 125.298L181.015 166.556L170.894 169.218L159.155 130.953L156.468 119.317L155.091 134.438L156.113 171.726L145.475 170.663Z" fill="#2F2E41"/>
<path d="M138.664 100.388L138.598 100.304L147.233 35.3198L147.244 35.2346L147.305 35.1737C147.433 35.0465 150.458 32.0583 153.57 32.0583C154.02 32.0583 154.448 32.0469 154.858 32.0365C157.239 31.9747 159.12 31.9252 161.356 34.16C163.634 36.4364 171.065 44.7492 171.065 56.1343C171.065 67.1541 172.069 101.4 172.079 101.745L172.094 102.228L171.688 101.964C171.588 101.9 161.592 95.5385 153.209 101.452C150.589 103.3 148.236 103.948 146.223 103.948C141.54 103.948 138.704 100.439 138.664 100.388Z" fill="#004BC7"/>
<path d="M158.223 26.6962C164.258 23.3983 166.477 15.8343 163.177 9.8014C159.878 3.76852 152.31 1.55135 146.274 4.84923C140.238 8.1471 138.02 15.7112 141.319 21.7441C144.619 27.7769 152.187 29.9941 158.223 26.6962Z" fill="#A0616A"/>
<path d="M133.181 114.353C133.771 113.897 134.253 113.317 134.593 112.654C134.934 111.991 135.125 111.262 135.153 110.517C135.182 109.773 135.046 109.031 134.757 108.344C134.467 107.658 134.03 107.043 133.477 106.543L140.55 89.8674L131.289 91.5711L125.992 107.146C125.214 108.13 124.824 109.365 124.896 110.618C124.968 111.87 125.498 113.053 126.384 113.941C127.27 114.83 128.451 115.362 129.704 115.438C130.957 115.514 132.194 115.128 133.181 114.353Z" fill="#A0616A"/>
<path d="M126.348 101.382L128.625 96.5753C128.485 96.4907 128.369 96.3705 128.289 96.2268C126.161 92.5407 139.015 61.9294 139.872 59.899C139.741 58.7947 138.392 47.0923 139.378 43.1478C140.54 38.5044 142.924 36.3403 147.352 35.9116C152.235 35.4533 153.553 42.0811 153.565 42.1484L153.57 59.1873L147.966 78.801L135.185 104.861L126.348 101.382Z" fill="#004BC7"/>
<path d="M153.841 20.4629C152.348 20.6571 151.221 19.1302 150.699 17.7188C150.177 16.3073 149.779 14.6641 148.481 13.9017C146.707 12.8601 144.438 14.1129 142.41 13.7692C140.119 13.3811 138.63 10.955 138.514 8.63599C138.397 6.31703 139.32 4.0867 140.226 1.94864L140.542 4.60576C140.5 3.7052 140.69 2.80885 141.093 2.00245C141.496 1.19606 142.1 0.506591 142.846 0L142.438 3.89891C142.694 1.71464 145.048 0.0221314 147.202 0.47478L147.137 2.79789C149.783 2.48349 152.451 2.16864 155.104 2.40817C157.758 2.6477 160.429 3.48674 162.44 5.2332C165.448 7.84565 166.547 12.1473 166.178 16.1132C165.809 20.0791 164.171 23.8047 162.464 27.4037C162.035 28.3092 161.441 29.331 160.445 29.4463C159.55 29.55 158.731 28.8023 158.453 27.9459C158.175 27.0895 158.31 26.1591 158.477 25.2742C158.729 23.9375 159.046 22.5711 158.809 21.2317C158.573 19.8922 157.608 18.5685 156.257 18.4043C154.907 18.2402 153.524 19.7836 154.174 20.9789L153.841 20.4629Z" fill="#2F2E41"/>
<path d="M208.367 185.992H118.736V185.26H208.5L208.367 185.992Z" fill="#3F3D56"/>
</g>
<defs>
<clipPath id="clip0_59_7442">
<rect width="208" height="186" fill="white" transform="translate(0.5)"/>
</clipPath>
</defs>
</svg>
