<svg width="34" height="34" viewBox="0 0 34 34" fill="none" xmlns="http://www.w3.org/2000/svg">
<path fill-rule="evenodd" clip-rule="evenodd" d="M5.98816 7.47607C5.98816 4.02429 8.78638 1.22607 12.2382 1.22607H21.762C25.2136 1.22607 28.012 4.02429 28.012 7.47607V9.55941H29.7977V5.09512C29.7977 4.27326 30.4639 3.60703 31.2858 3.60703C32.1077 3.60703 32.7739 4.27326 32.7739 5.09512V11.0475C32.7739 11.8694 32.1077 12.5356 31.2858 12.5356H28.012V14.3326C30.0098 14.4846 31.5834 16.1537 31.5834 18.1904V25.0356C31.5834 27.0723 30.0098 28.7413 28.012 28.8935V31.2856C28.012 32.1075 27.3458 32.7737 26.5239 32.7737C25.702 32.7737 25.0358 32.1075 25.0358 31.2856V28.9046H8.96435V31.2856C8.96435 32.1075 8.29811 32.7737 7.47626 32.7737C6.6544 32.7737 5.98816 32.1075 5.98816 31.2856V28.8935C3.9904 28.7413 2.41673 27.0723 2.41673 25.0356V18.1904C2.41673 16.1537 3.9904 14.4846 5.98816 14.3326V12.5356H2.71435C1.8925 12.5356 1.22626 11.8694 1.22626 11.0475V5.09512C1.22626 4.27326 1.8925 3.60703 2.71435 3.60703C3.53621 3.60703 4.20245 4.27326 4.20245 5.09512V9.55941H5.98816V7.47607ZM28.6072 19.3808H25.3334C24.5115 19.3808 23.8453 20.0471 23.8453 20.8689C23.8453 21.6908 24.5115 22.357 25.3334 22.357H28.6072V25.0356C28.6072 25.5287 28.2074 25.9285 27.7144 25.9285H21.762V21.7618C21.762 20.4468 20.696 19.3808 19.381 19.3808H14.6191C13.3042 19.3808 12.2382 20.4468 12.2382 21.7618V25.9285H6.28578C5.79266 25.9285 5.39292 25.5287 5.39292 25.0356V22.357H8.66673C9.48859 22.357 10.1548 21.6908 10.1548 20.8689C10.1548 20.0471 9.48859 19.3808 8.66673 19.3808H5.39292V18.1904C5.39292 17.6972 5.79266 17.2975 6.28578 17.2975H7.47626C8.29811 17.2975 8.96435 16.6313 8.96435 15.8094V7.47607C8.96435 5.668 10.4301 4.20227 12.2382 4.20227H21.762C23.57 4.20227 25.0358 5.668 25.0358 7.47607V15.8094C25.0358 16.6313 25.702 17.2975 26.5239 17.2975H27.7144C28.2074 17.2975 28.6072 17.6972 28.6072 18.1904V19.3808ZM11.3453 9.85703C11.3453 9.19955 11.8783 8.66655 12.5358 8.66655H21.4644C22.1218 8.66655 22.6548 9.19955 22.6548 9.85703V14.6189C22.6548 15.2764 22.1218 15.8094 21.4644 15.8094H12.5358C11.8783 15.8094 11.3453 15.2764 11.3453 14.6189V9.85703Z" fill="#F9F9F9"/>
</svg>
