<svg width="20" height="18" viewBox="0 0 20 18" fill="none" xmlns="http://www.w3.org/2000/svg">
<path fill-rule="evenodd" clip-rule="evenodd" d="M2.32143 1.875C2.02556 1.875 1.78571 2.12683 1.78571 2.4375V13.3125C1.78571 13.6231 2.02556 13.875 2.32143 13.875H2.85714C2.88541 13.875 2.91337 13.8763 2.94097 13.879C3.39253 13.1949 4.14567 12.7468 4.99849 12.7468C5.99723 12.7468 6.85927 13.3614 7.26031 14.25H12.0224C12.2104 13.8333 12.4998 13.4769 12.8571 13.2159V2.4375C12.8571 2.12683 12.6173 1.875 12.3214 1.875H2.32143ZM14.2857 9.9375V12.7468C15.1361 12.7473 15.8874 13.1935 16.339 13.875H17.6786C17.9744 13.875 18.2143 13.6231 18.2143 13.3125V9.9375H14.2857ZM4.99849 18C6.25824 18 7.30051 17.0221 7.47447 15.75H11.8082C11.9822 17.0221 13.0245 18 14.2842 18C15.544 18 16.5863 17.0221 16.7601 15.75H17.6786C18.9607 15.75 20 14.6587 20 13.3125V9.0151C20.0003 8.99781 20.0001 8.98047 19.9993 8.96311C19.9917 8.75752 19.9211 8.56893 19.8071 8.41803L18.1766 4.99377C17.8136 4.2315 17.0716 3.75 16.26 3.75H14.6429V2.4375C14.6429 1.09131 13.6035 0 12.3214 0H2.32143C1.03934 0 0 1.09131 0 2.4375V13.3125C0 14.6587 1.03934 15.75 2.32143 15.75H2.52249C2.69646 17.0221 3.73873 18 4.99849 18Z" fill="white"/>
</svg>
