<svg width="18" height="20" viewBox="0 0 18 20" fill="none" xmlns="http://www.w3.org/2000/svg">
<path fill-rule="evenodd" clip-rule="evenodd" d="M8.34319 19.7443L0.47478 15.4914C0.18132 15.3329 0 15.0363 0 14.7149V5.35716C0 5.3392 0.000554946 5.32137 0.00164995 5.30368C0.000554946 5.28608 0 5.26838 0 5.25061C0 4.92925 0.18132 4.6327 0.47478 4.47408L8.53734 0.116336C8.82432 -0.0387797 9.1758 -0.0387783 9.46279 0.116338L17.5252 4.4741C17.8186 4.6327 18 4.92927 18 5.25061C18 5.26838 17.9994 5.28608 17.9984 5.3037C17.9994 5.32137 18 5.3392 18 5.35716V14.7149C18 15.0363 17.8186 15.3329 17.5252 15.4914L9.65664 19.7444C9.48751 19.9026 9.2557 20 9 20C8.7442 20 8.51235 19.9024 8.34319 19.7443ZM9.9375 17.5393V10.1283L12.0937 8.96286V11.7859C12.0937 12.3777 12.5974 12.8574 13.2187 12.8574C13.84 12.8574 14.3438 12.3777 14.3438 11.7859V7.74673L16.125 6.78396V14.195L9.9375 17.5393ZM9.00006 8.58175L11.102 7.44564L4.9918 4.08591L2.83692 5.25061L9.00006 8.58175ZM9.00006 1.91948L7.26114 2.85935L13.3713 6.21909L15.163 5.25061L9.00006 1.91948Z" fill="#EFEEF2"/>
</svg>
